<svg xmlns="http://www.w3.org/2000/svg" viewBox="0 0 220 220" fill="none">
  <g stroke="#E7DFCF" stroke-width="8" stroke-linecap="round" stroke-linejoin="round">
    <path d="M109 34c8 0 10 7 10 15 0 7 4 12 10 14 10 3 20 2 27 8 9 8 0 18-12 18-8 0-16 3-20 9" />
    <path d="M111 34c-8 0-10 7-10 15 0 7-4 12-10 14-10 3-20 2-27 8-9 8 0 18 12 18 8 0 16 3 20 9" />
    <path d="M98 98c-9 12-13 25-14 38" />
    <path d="M122 98c9 12 13 25 14 38" />
    <path d="M72 116c-20 0-36 16-36 36s16 36 36 36 36-16 36-36" />
    <path d="M148 116c20 0 36 16 36 36s-16 36-36 36-36-16-36-36" />
    <path d="M72 152c0-12 10-22 22-22" />
    <path d="M148 152c0-12-10-22-22-22" />
  </g>
</svg>
